<?xml version="1.0" encoding="utf-8"?>
<!-- Generator: Adobe Illustrator 20.1.0, SVG Export Plug-In . SVG Version: 6.00 Build 0)  -->
<svg version="1.1" id="Layer_1" xmlns="http://www.w3.org/2000/svg" xmlns:xlink="http://www.w3.org/1999/xlink" x="0px" y="0px"
	 viewBox="0 0 292.8 292.5" style="enable-background:new 0 0 292.8 292.5;" xml:space="preserve">
<style type="text/css">
	.st0{opacity:0.95;clip-path:url(#SVGID_4_);}
	.st1{clip-path:url(#SVGID_6_);fill:#F5F5F5;}
	.st2{fill:#9B9B9B;}
	.st3{fill:#FFFFFF;}
	.st4{clip-path:url(#SVGID_14_);}
	.st5{clip-path:url(#SVGID_18_);}
	.st6{opacity:0.4;clip-path:url(#SVGID_22_);}
	.st7{clip-path:url(#SVGID_24_);}
	.st8{opacity:0.3;clip-path:url(#SVGID_26_);}
	.st9{clip-path:url(#SVGID_28_);fill:none;stroke:#FFFFFF;stroke-miterlimit:10;}
	.st10{fill:#373737;}
	.st11{clip-path:url(#SVGID_32_);fill:#FFFFFF;}
	.st12{clip-path:url(#SVGID_32_);fill:none;stroke:#FF7A00;stroke-miterlimit:10;}
	.st13{clip-path:url(#SVGID_34_);}
	.st14{clip-path:url(#SVGID_38_);}
	.st15{clip-path:url(#SVGID_42_);fill:#F5F5F5;}
	.st16{clip-path:url(#SVGID_50_);fill:#272727;}
	.st17{opacity:0.95;clip-path:url(#SVGID_52_);}
	.st18{clip-path:url(#SVGID_54_);fill:#F5F5F5;}
	.st19{opacity:0;clip-path:url(#SVGID_56_);}
	.st20{opacity:0;clip-path:url(#SVGID_58_);}
	.st21{clip-path:url(#SVGID_60_);fill-rule:evenodd;clip-rule:evenodd;fill:#666666;}
	.st22{clip-path:url(#SVGID_58_);fill:none;stroke:#FFFFFF;stroke-width:2;stroke-miterlimit:10;}
	
		.st23{clip-path:url(#SVGID_58_);fill:none;stroke:#FFFFFF;stroke-width:2;stroke-linecap:round;stroke-linejoin:round;stroke-miterlimit:10;}
	.st24{opacity:0.3;clip-path:url(#SVGID_56_);}
	.st25{clip-path:url(#SVGID_62_);}
	.st26{opacity:0.6;clip-path:url(#SVGID_56_);}
	.st27{clip-path:url(#SVGID_66_);fill-rule:evenodd;clip-rule:evenodd;fill:#666666;}
	.st28{clip-path:url(#SVGID_56_);fill:none;stroke:#FFFFFF;stroke-width:2;stroke-miterlimit:10;}
	
		.st29{clip-path:url(#SVGID_56_);fill:none;stroke:#FFFFFF;stroke-width:2;stroke-linecap:round;stroke-linejoin:round;stroke-miterlimit:10;}
	.st30{clip-path:url(#SVGID_56_);fill:#FFFFFF;}
	.st31{clip-path:url(#SVGID_56_);fill:none;stroke:#D7D7D7;stroke-miterlimit:10;}
	.st32{clip-path:url(#SVGID_68_);fill:#FFFFFF;}
	.st33{clip-path:url(#SVGID_68_);fill:none;stroke:#D7D7D7;stroke-miterlimit:10;}
	.st34{clip-path:url(#SVGID_70_);fill:#FFFFFF;}
	.st35{clip-path:url(#SVGID_70_);fill:none;stroke:#D7D7D7;stroke-miterlimit:10;}
	.st36{clip-path:url(#SVGID_72_);fill:#FFFFFF;}
	.st37{clip-path:url(#SVGID_72_);fill:none;stroke:#D7D7D7;stroke-miterlimit:10;}
	.st38{opacity:0;clip-path:url(#SVGID_74_);}
	.st39{clip-path:url(#SVGID_76_);fill:none;stroke:#D7D7D7;stroke-miterlimit:10;}
	.st40{clip-path:url(#SVGID_74_);fill:#FF7A00;}
	.st41{clip-path:url(#SVGID_78_);fill:#FF7A00;}
	.st42{clip-path:url(#SVGID_80_);fill:#FF7A00;}
	.st43{clip-path:url(#SVGID_82_);fill:#FF7A00;}
	.st44{clip-path:url(#SVGID_84_);}
	.st45{clip-path:url(#SVGID_86_);}
	.st46{opacity:0;clip-path:url(#SVGID_90_);}
	.st47{clip-path:url(#SVGID_94_);}
	.st48{clip-path:url(#SVGID_98_);}
	.st49{clip-path:url(#SVGID_102_);fill:#FF6E00;}
	.st50{clip-path:url(#SVGID_104_);fill:#FFFFFF;}
	.st51{fill:none;}
	path {
		fill:#F16E00;
	}
</style>
<g>
	<path d="M146.6,292.5C68.3,294.9-3.8,226.7,0.2,139.2c3.2-71.6,64.1-143.3,155-139c69.9,3.3,142.1,63.9,137.4,155.4
		C288.8,227.2,227.9,293.9,146.6,292.5z M193.5,64.2c5.8,0,11.1-0.7,16.1,0.1c12,1.9,20.9-2.3,27.8-11.8c0.2-0.3,0.4-0.5,0.7-0.7
		c2.6-2,2.6-4,0-5.9c-9.7-6.8-18.8-14.7-29.1-20.2c-27-14.6-56-18.4-86.3-13.2c-25.2,4.3-47.2,15.2-66.2,32
		C41.2,57.9,29.4,74.1,21.3,93c-10.3,23.9-13.2,48.7-9.5,74.1c2.5,17.2,7.8,33.7,17.5,48.3c5.2,7.8,11,15.2,16.7,22.6
		c0.8,1,3.5,2,3.9,1.6c3.5-3.3,7.5-5.8,7.5-12c-0.3-38.3-0.2-76.6-0.2-115c0-7.3,0-7.3,7.1-7.3c38.7,0,77.3,0,116-0.1
		c2.2,0,4.4-1.1,6.6-1.7c-0.1-0.7-0.3-1.3-0.4-2c-2,0-3.9,0-5.9,0c-27,0-54,0-81,0c-12.7,0-25.3-0.1-38,0.1c-3.5,0-4.7-1-4.6-4.5
		c0.2-9.5,0.2-19,0-28.5c-0.1-3.3,1-4.4,4.3-4.3c10.7,0.2,21.3,0.1,32,0.1c1.8,0,3.5,0,5.5,0c0.1-2,0.1-3.3,0.3-4.6
		c0.4-2-1.5-5.3,2.5-5.3c4.4-0.1,2.2,3.5,2.7,5.6c0.3,1.2,0.2,2.5,0.4,4c27.9,0,55.4,0,83.5,0c0-2.5-0.3-4.7,0.1-6.7
		c0.2-1.1,1.6-1.9,2.4-2.9c0.9,0.9,2.4,1.7,2.6,2.7C193.8,59,193.5,61.3,193.5,64.2z M247.8,55.7c-3,3.4-5.5,6.7-8.5,9.5
		c-2.7,2.6-4,5.3-3.8,9.1c0.3,7.1-0.2,14.3,0.2,21.5c0.2,4.3-0.9,5.9-5.5,5.7c-8-0.4-16-0.2-24,0c-1.8,0.1-3.5,1.4-5.3,2.1
		c0.2,0.5,0.4,1,0.5,1.5c9.5,0,18.9,0.2,28.4-0.1c4.6-0.2,5.9,1.2,5.8,5.8c-0.2,40.8-0.2,81.6,0,122.4c0,4.7-1.1,6.2-6,6.2
		c-52.1-0.2-104.3,0.1-156.4-0.3c-8.1-0.1-12.3,3.9-16.5,9.2c47.2,43.1,124.2,47.4,177.4,2.3C292.3,201.3,299.4,114.7,247.8,55.7z
		 M62.8,95.9c1.4,0.1,2.5,0.3,3.6,0.3c41.3,0,82.6,0,123.9-0.1c1.9,0,4.2-1,5.6-2.3c7.1-6.8,14-13.8,20.9-20.8
		c0.8-0.8,1.4-1.9,2.2-3.1c-8.8,0-17,0-25.3,0c-0.1,1.4-0.1,2.4-0.2,3.4c-0.4,2,1.3,5.2-2.7,5.1c-3.7-0.1-2.1-3-2.5-4.9
		c-0.2-1.2-0.3-2.5-0.5-3.7c-27.9,0-55.5,0-83.3,0c0,2.2,0.3,4.1-0.1,5.9c-0.3,1-1.7,1.8-2.6,2.7c-0.8-1-2.2-1.8-2.4-2.9
		c-0.4-1.8-0.1-3.8-0.1-5.7c-12.7,0-24.6,0-36.5,0C62.8,78.8,62.8,87.2,62.8,95.9z M178.5,112c-0.3-0.4-0.7-0.8-1-1.1
		c-38.2,0-76.4,0-114.4,0c0,38.6,0,76.7,0,115.1c5.4-3.3,7.5-7.2,7.4-13.3c-0.4-24.6-0.1-49.3-0.3-73.9c0-4.4,1.2-5.6,5.6-5.6
		c25.5,0.2,51,0.1,76.4,0.1c1.7,0,4,0,5.1-1C164.6,125.7,171.5,118.8,178.5,112z M172.5,131.6c0.2,0.5,0.5,1.1,0.7,1.6
		c1.8,0,3.5,0,5.3,0c12.7,0,25.3,0.2,38-0.1c4.7-0.1,6.2,1.1,6.2,6c-0.2,27.2-0.2,54.3,0,81.5c0,5-1.6,6-6.2,6
		c-44.5-0.2-89,0-133.5-0.2c-5.8,0-8.3,3.3-11.3,7.5c53.2,0,105.8,0,158.3,0c0-41.3,0-82.2,0-123.3c-11.6,0-22.7,0-33.9,0.1
		c-1,0-2.3,0.6-3.1,1.3C186.1,118.4,179.3,125,172.5,131.6z M188,167.8c-8.2,0-16,0-24.2,0c0,8.2,0,16,0,24.2c8.2,0,16,0,24.2,0
		C188,183.8,188,175.9,188,167.8z M104.8,137.8c0,8.2,0,16,0,24.4c7.4,0,14.5,0.1,21.5-0.1c1,0,2.7-1.4,2.7-2.3
		c0.2-7.4,0.1-14.8,0.1-22.1C120.6,137.8,112.9,137.8,104.8,137.8z M188.2,137.5c-6.8,0-13.1-0.3-19.3,0.2c-1.9,0.2-4.8,2.8-5,4.5
		c-0.6,6.5-0.2,13.1-0.2,19.6c8.7,0,16.6,0,24.6,0C188.2,153.7,188.2,146,188.2,137.5z M99,161.9c0-8.2,0-16,0-24.2
		c-7.8,0-15.3,0-23.2,0c0,8.2,0,16,0,24.2C83.7,161.9,91.2,161.9,99,161.9z M193.8,161.9c7.8,0,15.3,0,23.2,0c0-8.2,0-16,0-24.2
		c-7.8,0-15.3,0-23.2,0C193.8,145.9,193.8,153.8,193.8,161.9z M217,167.8c-7.8,0-15.3,0-23.2,0c0,8.2,0,16,0,24.2
		c7.8,0,15.3,0,23.2,0C217,183.8,217,175.9,217,167.8z M163.8,220.9c8.2,0,16,0,24.2,0c0-7.8,0-15.3,0-23.2c-8.2,0-16,0-24.2,0
		C163.8,205.6,163.8,213.1,163.8,220.9z M75.8,192.2c7,0,13.8,0.1,20.5-0.1c1,0,2.7-1.4,2.7-2.3c0.2-7.4,0.1-14.7,0.1-22.1
		c-8.2,0-15.6,0-23.4,0C75.8,175.9,75.8,183.8,75.8,192.2z M158,191.9c0-8.2,0-16,0-24.4c-6.7,0-13.1-0.2-19.5,0.2
		c-1.4,0.1-3.6,2.3-3.7,3.7c-0.4,6.7-0.2,13.5-0.2,20.5C142.7,191.9,150.2,191.9,158,191.9z M129,220.9c0-7.8,0-15.3,0-23.4
		c-7,0-13.8-0.2-20.5,0.2c-1.4,0.1-3.6,2.3-3.7,3.7c-0.4,6.4-0.2,12.8-0.2,19.5C113,220.9,120.8,220.9,129,220.9z M158,197.8
		c-7.8,0-15.3,0-23.2,0c0,7.8,0,15.3,0,23.2c7.8,0,15.3,0,23.2,0C158,213.1,158,205.6,158,197.8z M193.8,220.9c7.8,0,15.3,0,23.2,0
		c0-7.8,0-15.3,0-23.2c-7.8,0-15.3,0-23.2,0C193.8,205.6,193.8,213.1,193.8,220.9z M209.6,95.8c7.3,0,13.8,0,20.2,0
		c0-6.9,0-13.3,0-19.5C223.2,82.7,216.6,89.1,209.6,95.8z M135.1,137.7c0,5.8,0,10.9,0,14.5c4.7-4.7,9.8-9.8,14.5-14.5
		C145.4,137.7,140.3,137.7,135.1,137.7z M121.2,167.8c-5.8,0-11,0-16.2,0c0,5.5,0,10.7,0,16.3C110.5,178.6,115.6,173.5,121.2,167.8z
		 M128.9,176.6c-5.2,5.3-10,10.1-15.1,15.2c5.3,0,10.2,0,15.1,0C128.9,186.6,128.9,181.8,128.9,176.6z M75.8,212.5
		c5.1-5,9.9-9.8,14.7-14.6c-4.8,0-9.7,0-14.7,0C75.8,203,75.8,207.7,75.8,212.5z M143.4,161.8c5.4,0,9.9,0,14.5,0
		c0-4.9,0-9.3,0-14.4C152.9,152.4,148.4,156.8,143.4,161.8z M84.1,220.7c5.6,0,10.3,0,14.7,0c0-4.9,0-9.3,0-14.3
		C93.8,211.3,89.3,215.6,84.1,220.7z"/>
</g>
</svg>
