<?xml version="1.0" encoding="utf-8"?>
<!-- Generator: Adobe Illustrator 20.1.0, SVG Export Plug-In . SVG Version: 6.00 Build 0)  -->
<svg version="1.1" id="Layer_1" xmlns="http://www.w3.org/2000/svg" xmlns:xlink="http://www.w3.org/1999/xlink" x="0px" y="0px"
	 viewBox="0 0 292.2 292.7" style="enable-background:new 0 0 292.2 292.7;" xml:space="preserve">
<style type="text/css">
	.st0{opacity:0.95;clip-path:url(#SVGID_4_);}
	.st1{clip-path:url(#SVGID_6_);fill:#F5F5F5;}
	.st2{fill:#9B9B9B;}
	.st3{fill:#FFFFFF;}
	.st4{clip-path:url(#SVGID_14_);}
	.st5{clip-path:url(#SVGID_18_);}
	.st6{opacity:0.4;clip-path:url(#SVGID_22_);}
	.st7{clip-path:url(#SVGID_24_);}
	.st8{opacity:0.3;clip-path:url(#SVGID_26_);}
	.st9{clip-path:url(#SVGID_28_);fill:none;stroke:#FFFFFF;stroke-miterlimit:10;}
	.st10{fill:#373737;}
	.st11{clip-path:url(#SVGID_32_);fill:#FFFFFF;}
	.st12{clip-path:url(#SVGID_32_);fill:none;stroke:#FF7A00;stroke-miterlimit:10;}
	.st13{clip-path:url(#SVGID_34_);}
	.st14{clip-path:url(#SVGID_38_);}
	.st15{clip-path:url(#SVGID_42_);fill:#F5F5F5;}
	.st16{clip-path:url(#SVGID_50_);fill:#272727;}
	.st17{opacity:0.95;clip-path:url(#SVGID_52_);}
	.st18{clip-path:url(#SVGID_54_);fill:#F5F5F5;}
	.st19{opacity:0;clip-path:url(#SVGID_56_);}
	.st20{opacity:0;clip-path:url(#SVGID_58_);}
	.st21{clip-path:url(#SVGID_60_);fill-rule:evenodd;clip-rule:evenodd;fill:#666666;}
	.st22{clip-path:url(#SVGID_58_);fill:none;stroke:#FFFFFF;stroke-width:2;stroke-miterlimit:10;}
	
		.st23{clip-path:url(#SVGID_58_);fill:none;stroke:#FFFFFF;stroke-width:2;stroke-linecap:round;stroke-linejoin:round;stroke-miterlimit:10;}
	.st24{opacity:0.3;clip-path:url(#SVGID_56_);}
	.st25{clip-path:url(#SVGID_62_);}
	.st26{opacity:0.6;clip-path:url(#SVGID_56_);}
	.st27{clip-path:url(#SVGID_66_);fill-rule:evenodd;clip-rule:evenodd;fill:#666666;}
	.st28{clip-path:url(#SVGID_56_);fill:none;stroke:#FFFFFF;stroke-width:2;stroke-miterlimit:10;}
	
		.st29{clip-path:url(#SVGID_56_);fill:none;stroke:#FFFFFF;stroke-width:2;stroke-linecap:round;stroke-linejoin:round;stroke-miterlimit:10;}
	.st30{clip-path:url(#SVGID_56_);fill:#FFFFFF;}
	.st31{clip-path:url(#SVGID_56_);fill:none;stroke:#D7D7D7;stroke-miterlimit:10;}
	.st32{clip-path:url(#SVGID_68_);fill:#FFFFFF;}
	.st33{clip-path:url(#SVGID_68_);fill:none;stroke:#D7D7D7;stroke-miterlimit:10;}
	.st34{clip-path:url(#SVGID_70_);fill:#FFFFFF;}
	.st35{clip-path:url(#SVGID_70_);fill:none;stroke:#D7D7D7;stroke-miterlimit:10;}
	.st36{clip-path:url(#SVGID_72_);fill:#FFFFFF;}
	.st37{clip-path:url(#SVGID_72_);fill:none;stroke:#D7D7D7;stroke-miterlimit:10;}
	.st38{opacity:0;clip-path:url(#SVGID_74_);}
	.st39{clip-path:url(#SVGID_76_);fill:none;stroke:#D7D7D7;stroke-miterlimit:10;}
	.st40{clip-path:url(#SVGID_74_);fill:#FF7A00;}
	.st41{clip-path:url(#SVGID_78_);fill:#FF7A00;}
	.st42{clip-path:url(#SVGID_80_);fill:#FF7A00;}
	.st43{clip-path:url(#SVGID_82_);fill:#FF7A00;}
	.st44{clip-path:url(#SVGID_84_);}
	.st45{clip-path:url(#SVGID_86_);}
	.st46{opacity:0;clip-path:url(#SVGID_90_);}
	.st47{clip-path:url(#SVGID_94_);}
	.st48{clip-path:url(#SVGID_98_);}
	.st49{clip-path:url(#SVGID_102_);fill:#FF6E00;}
	.st50{clip-path:url(#SVGID_104_);fill:#FFFFFF;}
	.st51{fill:none;}
	path {
		fill:#F16E00;
	}
</style>
<g>
	<path d="M151.2,292.6c-45.3,0.2-79.9-14-108-41.9c-31-30.8-45.3-68.8-43-112.7c2.1-38.8,17.5-71.6,45.5-98.2
		C73.7,13.2,107.7,0,145.9,0c38.8,0,73.3,13.3,101.3,40.6c32.1,31.2,47,69.7,44.7,114.5c-1.9,37-16.4,69-42.4,95.1
		C223.8,276,187.1,293.6,151.2,292.6z M45.1,69.7c-0.3-0.3-0.7-0.7-1-1c-0.8-2.5-1.7-5-2.6-7.9c-1.4,1.9-2.7,3.7-3.8,5.1
		c2.4,1,4.4,1.8,6.5,2.7C44.5,68.9,44.8,69.2,45.1,69.7c0.7,1.6,1.6,2.5,4,1.2C47.4,70.3,46.3,70,45.1,69.7z M152.1,145.6
		c-0.4-0.3-0.8-0.6-1.3-0.9c-0.1,0.2-0.2,0.4-0.3,0.6C151.1,145.5,151.6,145.5,152.1,145.6c-0.3,2.4,1.6,2.9,3.3,3.6
		c1-0.7,2.1-1.4,4-2.8C156.4,146.1,154.3,145.9,152.1,145.6z M79.2,94.6c-3.9,2.2-8.8,2.6-11.8,6.6c3.6,1.4,7,2.8,10.8,4.3
		c0.5-3.8,3.9-6.9,0.9-10.8c-1-4.4-4.7-7.8-5.2-12.5c0-0.4-0.6-0.8-0.9-1.2c-2.9-3.8-6.8-2.4-10.5-2.1c0.4,2.8,0.9,5.4,1.3,8.2
		c-0.9,0.8-1.8,1.6-3.1,2.7c-1-1.9-1.9-3.4-2.6-4.7c-2.2,0.6-4.2,1.1-6.9,1.8c-1.1-3.7-2-6.9-2.8-10c-2.4-0.6-4.7-1.2-7.1-1.8
		c-0.9,3.1-1.8,6.1-2.9,9.6c-3.5-1.5-6.7-2.8-10.7-4.5c-2.6,5.9-5.8,12.2-8.4,18.7c-4.4,11.1-6.7,22.7-8.2,34.5
		c-0.4,2.9-1.3,6.4,1.2,9.1c5.3,5.7,8.5,12.7,11.8,19.7c2,4.1,4.8,7.9,10.4,7.7c2.2-0.1,4.4,1.1,6.6,1.7c1.3,1.4,2.6,2.9,4.4,4.9
		c0.5-2.2,0.8-3.4,1.2-4.8c-2.1,0-3.9,0-5.7,0c0-1.5,0-2.9,0-4.4c-1.7,0.1-3.2,0.3-4.6,0.2c-4.7-0.3-6.9-3.6-5.5-8.2
		c0.3-1.1,0.7-2.2,1.2-3.2c3.5-6.7,11.5-7.3,15.9-1.2c0.4,0.5,0.8,0.9,0.9,1c3.2-5.3,5.9-10.8,9.6-15.7c3.9-5.1,10.2-6.8,16.2-8.5
		c-2-4.2-2-6,0.4-7.2c1.3-0.6,3-0.5,4.9-0.7c-0.4,2-0.6,3.2-0.8,4.4c1.4,1.8,2.9,2.2,4.3,0.5c1.6-1.8,0.2-3.8-0.9-4.9
		c-3.9-3.8-5.9-8.2-5.6-13.6c-3.4-1.1-6.4-2.2-9.8-3.3c-0.8,2.6-1.4,5-2.2,7.3c-1.6,4.2-5.1,5.8-9.4,4.4c-3.9-1.3-6.1-3.3-6.7-7.9
		c-0.9-7.6,0.9-10.3,8.3-9.8c1,0.1,1.9,0.4,2.9,0.5c1.7,0.2,3.4,0.3,5.2,0.5c-1.7-2.4-3-4.3-4.3-6.1c2.6-3.8,4.9-7.1,7.5-10.8
		c0.8,2.7,1.5,4.8,2.1,7.1C73.6,92.8,76.4,93.7,79.2,94.6z M52.1,173.6c1.4-0.3,3.1-0.2,4.2-1c8.5-5.7,26.9,1.4,29.3,11.7
		c0.4,0.1,0.9,0.3,1.4,0.4c4.4,1.2,8.9,2.2,13.2,3.7c5.7,2,6.9,8.3,1.8,11.5c-2.9,1.9-3.1,4.4-3,7.3c0.2,4.4-1.5,7.8-5.3,9.9
		c-2.2,1.2-3.5,2.8-4.1,5.2c-1.7,6.8-6.7,11.4-11.7,15.4c-4,3.2-4.7,6.9-4.8,11.1c0,1.5,1.1,3.1,1.9,5.3c1.1-2,1.8-3.1,2.5-4.3
		c1.6,0.6,2.9,1.1,4.2,1.5c0,1.3,0,2.5,0,3.7c-1.2,0.4-2.2,0.7-2.6,0.8c-0.5,2.8-0.8,5.1-1.3,7.8c3,1.5,6.3,3.3,9.7,5
		c14.8,7.4,30.5,11.8,46.9,12.9c14.7,1,29.3,0.1,43.9-3.5c20.3-5.1,38.4-14.3,54.2-27.6c9.1-7.6,17.5-16.3,24.3-26.3
		c1.9-2.7,3.7-5.4,3.4-9.1c-0.1-1.2,1-3.4,1.9-3.6c4.8-1.3,5-5.7,7.1-9.1c-3.6-2.1-8.3-1-10.9-4.8c0.3-0.9,0.7-1.9,1.1-3
		c3.9,0.5,7.8,0.9,12.2,1.4c-1.2-2-2-3.2-2.7-4.4c0.1-0.2,0.3-0.4,0.4-0.6c-0.1,0.2-0.2,0.5-0.3,0.7c-3.8,0.5-7.7,1-11.8,1.5
		c-0.2,1.8-0.4,3.9-0.7,6.5c-5.5-3.7-11.4-6.2-13.6-13.4c1.1-0.6,2.3-1.1,2.6-1.3c-1-2.8-2.2-4.5-2.3-6.3c-0.2-5.5-4.5-8.2-6.9-12.3
		c-2.2,2-3.8,3.5-5.3,4.8c-0.1,0.6-0.1,0.8-0.1,0.9c0.6,2,1.2,4.1,1.9,6.3c-0.3,0.7-0.6,1.4-1,2.1c-2.9,4.9-5.1,5.2-9.2,1.2
		c-4.8-4.8-9.4-9.8-12.1-16.2c-1.1-2.5-2.6-3.7-5.5-2.4c0.2,8.4-4.5,12.8-11.8,14.6c-0.1,2.9-0.2,5.3-0.4,7.8
		c-0.3,3.1-2.1,5.2-4.6,6.7c-4.4,2.5-5,3.9-4.2,8.6c0.3,1.7,0.1,3.5,0.1,5.2c-0.1,3.7-3.6,4.4-6.1,6.2c0.4,6.1-3.6,10.3-6.8,14.8
		c-4.2,6-9.9,3.3-14.5,2.4c-1.3-0.6-2.5-1.1-3.1-1.4c-0.6-2.7-0.3-5.5-1.6-6.7c-5.2-5.1-4-11.2-3.6-17.3c0.2-3.1,0.5-6.2,0.8-9.3
		c-0.4,0.1-0.9,0.3-1.3,0.4c-2-3-4.1-6-6.6-9.7c-1.9,0-4.7,0.4-7.5-0.1c-3.5-0.6-7.1-1.4-10.3-2.9c-5-2.4-7.8-6.5-7.4-12.3
		c0.3-3.8,0.6-7.6,1.1-11.3c0.3-2.2,1.8-3.7,3.9-4.8c2.4-1.2,4.6-2.9,7.3-4.6c-6.5-3.6-3.8-8.8-4.2-13.7c2.6-0.6,4.9-1.1,6.9-1.6
		c-0.3-1.6-1.1-3.4-0.7-4.7c0.4-1.5,2.1-2.6,3.8-4.6c-3.1,0-5.3,0-7.6,0c-1.7-7,3.9-9.8,6.3-14.9c2.7,4.2,4.8,7.7,6.9,11.1
		c0.9-0.3,2-0.6,4-1.1c-1.1-1.7-1.8-3-2.7-4c-3.3-3.3-4.1-6.3-1.4-9.1c2.7-2.9,4-6.1,5.4-9.7c4.2-10.7,17.7-13.7,27.5-6.4
		c3.6,2.7,3.7,2.7,7.6-0.5c-0.3-0.7-0.6-1.4-1-2.1c-1.8-3.5-1.7-7.2-0.3-10.5c1.3-3.3,3.5-6.3,5.4-9.4c1.9-3.1,4.8-3.7,8.3-1.8
		c0.6,3.2-0.2,6-1.8,8.9c-1.8,3.3-2.9,7.1-0.4,11.1c0.7-2.6,1.5-5.2,2.3-8c0.9-0.5,1.9-1.1,3-1.5c1-0.4,2.1-0.6,3.1-0.8
		c0.7-5,3.2-9.3,4.8-8.5c0.2,1.2,0.5,2.3,0.7,3.5c0.3,0,0.7,0.1,1,0.1c0.8-2.6,1.7-5.1,2.5-7.7c0.8-0.1,1.6-0.1,2.4-0.2
		c-0.1-0.3-0.2-0.5-0.3-0.8c-0.7,0.4-1.4,0.7-2.1,1.1c-1.7-0.1-3.3,0-5-0.2c-6-0.9-8.2-3.7-7.9-8.7c0.1-1.3,0.3-2.5,0.4-3.6
		c3.1-0.9,5.5,0,7.9,1.4c1.7,1.1,3.8,1.9,5.9,2.1c2.7,0.3,4.3,1.4,4.8,4c-0.5,0.1-1.1,0.1-1.6,0.2c0.1,0.2,0.2,0.4,0.3,0.6
		c0.4-0.3,0.8-0.6,1.3-0.9c7.8-0.8,12.3,5.7,17.3,8.3c2.2-1,3.4-1.9,4.7-2.1c3.8-0.6,7.1,1.1,10.4,2.6c0.3,0.2,0.9-0.2,1.7-0.3
		c-0.7-1.3-1.2-2.4-1.7-3.4c-3.2-0.2-6.3,0.1-8.2-2.9c1.6-3.4,1.6-3.4,6.7-6.8c-17.9-18.4-38.8-31.7-63.6-38.4
		c-24.6-6.6-49.1-6.1-73.6,0.8c-25.1,7.1-51.8,25.8-62.1,40c4-0.7,8.1-0.8,11.7-2.1c3.8-1.4,6.9-0.8,9.9,0.6
		c1.5-1.6,2.8-3.3,4.5-4.5c5.4-3.8,11.7-4.2,18-4.6c2.5-0.2,5.6,0.4,7.5,1.9c4.9,3.9,10.2,3,15.6,2.7c3.7-0.2,7.4-0.3,10,3.4
		c1,1.4,3.1,2.3,4.9,2.9c5.4,1.8,6.4,4.5,3.5,9.2c-1.3,2.1-2.9,4.3-3.2,6.6c-0.6,4.5-1.8,8.7-4,12.6c-0.5,1-0.8,2.2-1.2,3.2
		c-1,2.7-1.9,5.5-2.9,8.3c-0.7,0.3-1.3,0.7-2,1c-3,0.7-6,1.4-9,2.1c0.2,0.3,0.3,0.6,0.5,0.9c-1.9,1.9-3.9,3.8-6.3,6.2
		c-1.8,7-3.8,8.4-11.1,7.2c-1.3-2.4-2.3-4.6-3.6-6.7c-3.4-5.4-2.2-11-0.9-16.8c0.9-3.8,2.4-7.6,1.1-11.7c-3.7-0.6-7.1-1.7-8.1-6.4
		c-1.5,1.6-2.6,2.8-3.8,4c1.5,3.7,2.2,7.7,4.4,10.6c4.3,5.5,5,11.2,2.3,17.2c-2.6,6.1-1.8,11.2,2.5,16c0.3,0.4,0.7,0.7,1,1.1
		c3.2,4.8,2.1,10.4-2.5,12.1c-4.3,1.6-8.5,3.3-12.9,4.6c-6.2,1.9-10.7,5.7-13.6,11.3c-1.9,3.7-3.4,7.7-4.9,11.2
		c3.3,3.9,6.7,4.8,11.3,3.3c2.3-0.8,5.4-1.1,7.3,2.7c-3.9,2.7-8.5,2.6-13,2.8c-6,0.3-8.6-4-11.6-9.5c0,2.8,0,4.5,0,6
		C51.1,168.9,51.2,169,52.1,173.6c-0.1,0.3-0.2,0.5-0.3,0.7C51.9,174,52,173.8,52.1,173.6z M148.4,188.5c4.7,1.9,6.3,5.3,5.6,10
		c-0.3,2-0.7,3.9-0.8,5.9c-0.1,4.2-1.2,8.6,1.5,12.6c1.7,2.5,2.9,5.3,4.7,8.6c4.3,1.6,4.5,1.8,6.4-0.1c4.4-4.4,8.4-9,8.4-15.7
		c0-0.8,0.4-1.5,0.5-2.2c5.6-1.9,5.7-2.1,4.6-7.9c-1.2-6.5,0.6-9.6,7-12.2c0.4-0.2,0.8-0.6,1.5-1.1c0-1.9,0-4,0-5.5
		c-3.3-3.8-7.2-6.9-9.2-11c-2.1-4.1-8.1-6.7-6-12.7c2.6-1.1,3.6,0.3,4.8,2.2c2.3,3.6,4.7,7.2,7.4,10.5c2.7,3.2,6.1,3.6,9.9,2
		c4.2-1.8,5.3-3.5,5.1-6.7c-3.7-3.9-6.7-7.1-10.1-10.7c1.7-1.1,2.7-1.7,3.8-2.4c4.2,3.4,8.7,6.3,13.8,6.5c4.6,0.2,7.2,2.2,8.6,6
		c2.2,5.8,7.3,9.3,10.9,13.9c0.1,0.1,0.5-0.2,0.8-0.3c-0.6-3.3-1.2-6.6-1.7-9.7c1.7-1.3,3-2.1,3.9-3.2c4.6-5.2,9.8-4.5,13.3,1.7
		c1.1,1.9,2.6,4,4.4,5.1c2.5,1.4,5.5,1.9,8.8,2.9c-1-2.7-2.1-5.2-2.9-7.8c-0.7-2.4,0.4-4.5,2.6-5.1c0.9-0.3,2-0.1,3-0.2
		c6.9-1,9.9-5.3,8.3-12.1c-0.5-2.1-0.8-4.2-1.3-6.3c-1.1-4.7-0.8-5.6,3.6-8.6c1,0.7,2.1,1.4,3.3,2.1c0.2-2.2,0.4-4.2,0.5-6.2
		c4-1.7,6.5-4.4,5.6-8.9c-0.6-3.4-1.5-6.7-2.2-9.7c-6.8-3.7-7.1-4.8-3.8-12.1c-0.6-1.6-1.2-3.4-2-5c-3.9-8.4-7.6-16.9-13.4-24.2
		c-0.8-1.1-2.3-1.7-3.8-2.7c-0.7,2-1.2,3.2-1.5,4.2c-5.1,1.4-9.3-0.9-13.6-2.5c-0.6,1-1.1,1.9-1.4,2.5c-5.8,1.6-9.8-1.2-13.7-4.5
		c-2.1-1.7-4.5-2.9-7.5-4.8c-0.8,2.7-1.3,4.5-1.5,5.3c-1.7,1.2-2.9,1.8-3.6,2.7c-2.4,3.2-4.5,6.8-7.1,9.9c-0.9,1.1-2.9,1.3-4.5,1.7
		c-0.8,0.2-1.8-0.1-2.8-0.3c-0.3,0.9-0.7,1.6-0.6,2.1c0.6,3.6-1.3,5.7-4.3,7c-2.8,1.3-6,2.1-8.5,3.8c-5.5,3.8-10.1,3.2-15.3-0.9
		c-6-4.9-17.4-1.3-18.7,5.8c-0.8,4.4-2.3,7.7-6,10.2c-0.1,0.1,0.2,0.6,0.2,0.8c1.3-0.4,2.7-1,4-1.1c1.6-0.1,3.2,0.1,4.7,0.2
		c3.7-8.9,3.7-8.9,8.2-8.9c0.1,0.4,0.4,0.9,0.4,1.4c0.1,3.3,0.1,6.7,0.1,10c0,2.6-4.5,8.5-7,8.8c-1.4,0.2-3.1-0.6-4.5-1.2
		c-0.7-0.3-1.2-1.3-2.2-2.5c-0.2,2.7-0.4,4.6-0.5,5.3c-3.8,3.1-6.7,5.5-9.4,7.7c3.8,9.4-3.6,8.2-8.4,9.6c0.1,1.5,0.1,2.9,0.2,4.4
		c4.6,0.2,7.6-1.3,10-4.8c1.4-2,3.5-3.5,5.7-5.7c0.1-1.1,0.3-3,0.5-4.8c1.8,1.6,2.8,3.4,3.7,5.2c1.8,3.5,3.8,6.5,8.3,6.8
		c1.5,0.1,2.9,1.4,4.4,2c1.7,0.6,3.4,1.2,5.1,1.6c2.1,0.5,4.2,0.7,6.3,1.1c2.2,0.5,3.7,1.8,3.4,4.2c-0.3,2.2-1.7,3.6-4.1,3.5
		c-3-0.1-5.9-0.4-8.9-0.5c-1.1-0.1-2.6-0.4-3.3,0.1c-4.5,3.3-8.4,0.9-11.7-1.5c-5-3.7-13.5-3.4-17.5,1.1c-2.6,2.9-5.1,6.1-9.1,6.6
		c-0.3,2.4-0.3,4.4-0.8,6.3c-2.3,8.8,2.1,13.8,11.4,15.2c2.3,0.3,4.7,0,7,0.1C145.9,180.8,147.5,182.1,148.4,188.5z M48.4,183.2
		c-3.7-2.6-6.9-5.1-10.4-7.2c-1.3-0.8-3-1.4-4.5-1.4c-4.7,0.1-8.2-2.2-11.2-5.5c-3.6-3.9-7.2-7.9-11.2-12.3
		c1.7,18.1,6.1,34.8,14.2,50.5c8.1,15.7,18.4,29.7,32.6,41.3c0.5-12.9,0.9-24.9,1.3-36.5C45.9,202.6,42.1,191.8,48.4,183.2z
		 M126.7,62.8c-2.7-2.1-5.4-4.1-8-6.2c-2.2-1.8-4.5-2.4-7.4-1.7c-5.7,1.4-11.2,1.3-16-2.6c-1-0.8-2.3-1.4-3.6-1.6
		c-5.4-0.7-10.5,0.8-15.4,2.8c-3.6,1.5-3.8,5.1-5.3,8.6c-2.7-1-5.3-1.9-8.6-3.2c0.5,2.7,1,5,1.5,7.2c-0.4,0.2-0.8,0.4-1.2,0.6
		c-1.3-1-2.6-2.1-3.9-3.1c-2-0.1-4-0.2-6.2-0.3c-0.1-0.9-0.1-1.7-0.2-2.6c-2.1-0.3-4.2-0.9-5.3,1.6c2.1,6.6,8.2,3.1,11.9,4.9
		c2.9,5.7-2.1,6.8-5.3,9.1c1.4,1.7,2.5,3.2,4.3,5.5c0-2.1,0-3.3,0-4.7c4.2-1.2,8.5-2.3,12.7-3.7c1.5-0.5,3.5-1.3,4-2.6
		C78,64,85.5,62.9,91,57.9c1,2.1,1.6,3.5,2.2,5c-2.9,1.4-5.3,2.5-8.4,4c0.4,2.1,0.8,4.4,1.2,6.5c2.5,0.3,4.2,0.6,6.6,0.9
		c0.5,2.1,1.3,4.1,1.3,6.1c-0.2,3.4-0.4,7-1.5,10.2c-2.4,7.2-1.2,13.4,4.1,19c0.5-1,1.4-1.8,1.4-2.7c0.1-5.9,6.7-6.7,8.6-11.2
		c0.2-0.5,1.4-0.8,2.2-0.9c5.9-0.7,9-3.6,10.5-9.7C121.1,77.3,124.2,69.9,126.7,62.8z M80.4,228.7c1.5-2.6,3.5-5.2,4.7-8.2
		c1.2-2.9,2.5-5.3,5.3-6.9c2.8-1.6,4.2-4,3.9-7.4c-0.3-3.4,0.4-6.6,3-9.1c0.9-0.9,1.8-1.9,3.3-3.7c-5.2-1.4-9.7-2.8-14.3-3.9
		c-2.5-0.6-4.6-1.2-5.4-4.3c-0.4-1.6-1.7-3.4-3.1-4.4c-8.1-5.5-14.5-7.9-23.3-1.7c0.8,2.8,0.5,5.3-2,7.5c-1,0.8-1.3,2.6-1.5,3.9
		c-0.9,6.6,1.8,11.6,7.5,14.9c2.9,1.7,5.1,3.8,5.4,7.2c0.2,2.6,0.1,5.3,0,8c-0.3,9.4-0.8,18.9-0.9,28.3c0,4.7,4.7,9,9.4,9.2
		c-7-7.3-5.5-18.5,3.5-25.3c0.2-1.5,0.3-3.2,0.5-5C77.6,228.2,78.6,228.3,80.4,228.7z M256.5,185.3c4.2-2.5,8-4.7,13-2.8
		c0.3,2.2,0.6,4.4,0.9,6.5c0.4-0.1,0.7-0.1,1.1-0.2c1.5-4.8-1.2-9.1-2-14c-2.3-0.2-4.4-0.4-7.3-0.8c2.5-2.3,4.5-4.1,6.7-6.1
		c0.2-1.2,0.5-2.6,0.8-4.4c1.8,0.1,3.4,0.2,5,0.2c0.6,3.6-0.5,7.7,4.3,9.1c0.4-6.7,2.9-13.1,2.1-20c-1.7,0.5-3.1,0.8-4.1,1.1
		c-1.3-1.6,0.5-4.8-3.4-4.3c-0.2,1.1-0.5,2.2-0.5,3.3c0.3,5.2-2.3,8.7-6.6,11.3c-2.2,1.3-4.2,2.9-6.4,4.4c2.1,6.1,0.7,10.7-5.2,13.5
		C255.5,183.4,255.9,184.3,256.5,185.3z M62.6,106.6c-3.5-0.4-6.3-0.8-9.1-1.2c-0.5,6.4-0.2,6.7,6,8.8
		C60.3,112.1,61.2,109.9,62.6,106.6z M34.9,162.2c4.7,1.5,6.7-2.3,10-3c-1-1.4-1.7-2.5-2.6-3.7c-1.5,0.1-2.9,0.3-4.5,0.4
		C36.9,158,36,159.9,34.9,162.2z M277.9,143.6c1.5-0.8,2.8-1.1,2.8-1.5c0.2-3,0.1-6.1,0.1-10.1C276.4,135.4,278.7,139.4,277.9,143.6
		z M274.2,187.6c2.1-3.6,2.1-3.6,0-5.3C274.2,183.8,274.2,185.2,274.2,187.6z M147.2,144.7c0-0.4,0.1-0.7,0.1-1.1
		c-1.5,0.4-3.1-2.4-5,0.9C144.2,144.6,145.7,144.6,147.2,144.7z M183.9,80.3c-0.2,0-0.3,0-0.5,0c0,1.5,0,3,0,4.5c0.2,0,0.3,0,0.5,0
		C183.9,83.3,183.9,81.8,183.9,80.3z M265,188.2c-0.1-0.4-0.2-0.8-0.3-1.2c-1,0.3-2,0.5-3,0.8c0,0.2,0.1,0.5,0.1,0.7
		C262.9,188.4,263.9,188.3,265,188.2z M39.6,72.5c0-0.2,0-0.4,0-0.6c-0.6,0-1.1,0.1-1.7,0.1c0,0.2,0,0.4,0,0.6
		C38.4,72.5,39,72.5,39.6,72.5z M200.9,57.1c-0.1-0.1-0.2-0.2-0.2-0.3c-0.1,0.1-0.3,0.2-0.3,0.2c0,0.1,0.1,0.2,0.2,0.3
		C200.7,57.3,200.8,57.2,200.9,57.1z M184.9,78.1c-0.1-0.1-0.2-0.2-0.2-0.3c-0.1,0.1-0.3,0.2-0.3,0.2c0,0.1,0.1,0.3,0.2,0.3
		C184.7,78.4,184.8,78.2,184.9,78.1z M251.6,187.4c0.1-0.1,0.2-0.2,0.3-0.2c-0.1-0.1-0.2-0.3-0.2-0.3c-0.1,0-0.2,0.1-0.3,0.2
		C251.4,187.2,251.5,187.3,251.6,187.4z"/>
	<path d="M198.1,205.9c-0.6,4.9-2.3,9.2-6.8,11.8c-3.5,2.1-6.7,0.3-7-3.7c-0.4-5.4,3-9.2,6-13.1c0.8-1.1,3.1-2.3,5.2-1.1
		C197.9,201.3,198.3,203.4,198.1,205.9z M190.1,211.6c2.4-1.1,3.1-2.9,2.2-5.6C191.6,207.9,190.9,209.8,190.1,211.6
		c-0.1,0.3-0.2,0.5-0.3,0.7C189.9,212,190,211.8,190.1,211.6z"/>
	<path d="M118.1,97.6c0.7-0.3,1.3-0.7,2-1c2.2,0.5,4.3,1,6.6,1.6c0,2.3,0,4.1,0,5.9c-4,3.1-6.1,3.1-9.1,0.5
		C114.8,101.9,117,99.8,118.1,97.6z"/>
	<path d="M189.5,148.4c1.7-6-3.9-8.9-5.4-13.1c1.3-3.7,4.3-3.7,7.4-4.7c1.5,3.2,3.6,6.3,4.2,9.6C196.4,144,193.1,146.2,189.5,148.4z
		"/>
	<path d="M181.7,135c0,2.4,0,4.2,0,5.9c-5.7,2.2-10-2.1-15.2-2.7c0-1.6,0-3.2,0-5C171.9,131.5,176.5,134.9,181.7,135z"/>
</g>
</svg>
