<?xml version="1.0" encoding="utf-8"?>
<!-- Generator: Adobe Illustrator 20.1.0, SVG Export Plug-In . SVG Version: 6.00 Build 0)  -->
<svg version="1.1" id="Layer_1" xmlns="http://www.w3.org/2000/svg" xmlns:xlink="http://www.w3.org/1999/xlink" x="0px" y="0px"
	 viewBox="0 0 292.2 292.5" style="enable-background:new 0 0 292.2 292.5;" xml:space="preserve">
<style type="text/css">
	.st0{opacity:0.95;clip-path:url(#SVGID_4_);}
	.st1{clip-path:url(#SVGID_6_);fill:#F5F5F5;}
	.st2{fill:#9B9B9B;}
	.st3{fill:#FFFFFF;}
	.st4{clip-path:url(#SVGID_14_);}
	.st5{clip-path:url(#SVGID_18_);}
	.st6{opacity:0.4;clip-path:url(#SVGID_22_);}
	.st7{clip-path:url(#SVGID_24_);}
	.st8{opacity:0.3;clip-path:url(#SVGID_26_);}
	.st9{clip-path:url(#SVGID_28_);fill:none;stroke:#FFFFFF;stroke-miterlimit:10;}
	.st10{fill:#373737;}
	.st11{clip-path:url(#SVGID_32_);fill:#FFFFFF;}
	.st12{clip-path:url(#SVGID_32_);fill:none;stroke:#FF7A00;stroke-miterlimit:10;}
	.st13{clip-path:url(#SVGID_34_);}
	.st14{clip-path:url(#SVGID_38_);}
	.st15{clip-path:url(#SVGID_42_);fill:#F5F5F5;}
	.st16{clip-path:url(#SVGID_50_);fill:#272727;}
	.st17{opacity:0.95;clip-path:url(#SVGID_52_);}
	.st18{clip-path:url(#SVGID_54_);fill:#F5F5F5;}
	.st19{opacity:0;clip-path:url(#SVGID_56_);}
	.st20{opacity:0;clip-path:url(#SVGID_58_);}
	.st21{clip-path:url(#SVGID_60_);fill-rule:evenodd;clip-rule:evenodd;fill:#666666;}
	.st22{clip-path:url(#SVGID_58_);fill:none;stroke:#FFFFFF;stroke-width:2;stroke-miterlimit:10;}
	
		.st23{clip-path:url(#SVGID_58_);fill:none;stroke:#FFFFFF;stroke-width:2;stroke-linecap:round;stroke-linejoin:round;stroke-miterlimit:10;}
	.st24{opacity:0.3;clip-path:url(#SVGID_56_);}
	.st25{clip-path:url(#SVGID_62_);}
	.st26{opacity:0.6;clip-path:url(#SVGID_56_);}
	.st27{clip-path:url(#SVGID_66_);fill-rule:evenodd;clip-rule:evenodd;fill:#666666;}
	.st28{clip-path:url(#SVGID_56_);fill:none;stroke:#FFFFFF;stroke-width:2;stroke-miterlimit:10;}
	
		.st29{clip-path:url(#SVGID_56_);fill:none;stroke:#FFFFFF;stroke-width:2;stroke-linecap:round;stroke-linejoin:round;stroke-miterlimit:10;}
	.st30{clip-path:url(#SVGID_56_);fill:#FFFFFF;}
	.st31{clip-path:url(#SVGID_56_);fill:none;stroke:#D7D7D7;stroke-miterlimit:10;}
	.st32{clip-path:url(#SVGID_68_);fill:#FFFFFF;}
	.st33{clip-path:url(#SVGID_68_);fill:none;stroke:#D7D7D7;stroke-miterlimit:10;}
	.st34{clip-path:url(#SVGID_70_);fill:#FFFFFF;}
	.st35{clip-path:url(#SVGID_70_);fill:none;stroke:#D7D7D7;stroke-miterlimit:10;}
	.st36{clip-path:url(#SVGID_72_);fill:#FFFFFF;}
	.st37{clip-path:url(#SVGID_72_);fill:none;stroke:#D7D7D7;stroke-miterlimit:10;}
	.st38{opacity:0;clip-path:url(#SVGID_74_);}
	.st39{clip-path:url(#SVGID_76_);fill:none;stroke:#D7D7D7;stroke-miterlimit:10;}
	.st40{clip-path:url(#SVGID_74_);fill:#FF7A00;}
	.st41{clip-path:url(#SVGID_78_);fill:#FF7A00;}
	.st42{clip-path:url(#SVGID_80_);fill:#FF7A00;}
	.st43{clip-path:url(#SVGID_82_);fill:#FF7A00;}
	.st44{clip-path:url(#SVGID_84_);}
	.st45{clip-path:url(#SVGID_86_);}
	.st46{opacity:0;clip-path:url(#SVGID_90_);}
	.st47{clip-path:url(#SVGID_94_);}
	.st48{clip-path:url(#SVGID_98_);}
	.st49{clip-path:url(#SVGID_102_);fill:#FF6E00;}
	.st50{clip-path:url(#SVGID_104_);fill:#FFFFFF;}
	.st51{fill:none;}
	path {
		fill:#F16E00;
	}
	</style>
<g>
	<path d="M292.2,146.4c1.5,78-65.1,150.4-154.3,145.9c-71.8-3.6-140.7-64-137.8-152c2.4-74.4,64-143,152.2-140.2
		C227.1,2.5,293,64.6,292.2,146.4z M138.9,147.2c-4.6-2-8.1-3.4-11.4-5c-10.8-5.1-21.2-10.8-28.2-21.1c-5.9-8.8-7.9-18.7-7.3-29.2
		c0.6-11.9,4.5-22.6,12.8-31.3c9.3-9.7,21-14.1,34.1-14.5c4-0.1,5.4-1.5,5.1-5.3c-0.2-2.3-0.3-4.7,0.1-7c0.2-1.3,1.5-2.4,2.3-3.7
		c0.6,1.2,1.5,2.3,1.7,3.5c0.3,2,0.3,4,0,6c-0.7,5,2,6.2,6.3,6.5c5.1,0.4,10.2,0.9,15.1,2C187,52,198,65.1,197.1,81
		c-0.1,1.4-1.8,2.8-2.8,4.2c-0.8-1.3-2.2-2.7-2.2-4c0.3-14.9-8.2-22.8-19.4-26.8c-12.8-4.5-26.2-5.5-39.5-2.9
		c-8.4,1.7-16.4,4.7-22.8,11.1C102,71,97.3,80.8,97.1,92.9c-0.3,10.7,1.7,20.4,9.2,28.5c8.6,9.4,19.7,14.7,31.1,19.6
		c3.5,1.5,5.7,1.4,8.5-1.5c29.1-29.3,58.4-58.5,87.6-87.7c1.2-1.2,2.2-2.4,3.4-3.6c-52.3-48.4-132.2-49-185,3.3
		C1.1,101.9-2,182,48.6,237.3C78.5,207.5,108.4,177.6,138.9,147.2z M56,244.5c53,49.8,138,47.7,189.3-8.4
		c45-49.2,48-127.9,0.1-178.9c-30,30-60,60-90,89.9c5.8,2.7,12.4,5.5,18.7,8.9c11.4,6.3,20.7,14.6,25.1,27.4
		c2.6,7.4,1.4,14.7-0.2,21.8c-4.3,18.9-14.2,33.2-33.7,39c-5.5,1.6-11.2,2.3-17.2,3.5c0,3.7,0.2,7.2-0.1,10.6
		c-0.1,1.3-1.3,2.5-1.9,3.8c-0.7-1.2-2-2.4-2.1-3.6c-0.3-3.6-0.1-7.2-0.1-10.9c-5.2-0.9-9.7-1.3-14.2-2.4c-4.6-1.1-9.3-2.3-13.5-4.4
		c-11.9-5.8-18.7-18.6-17.2-31.5c0.1-1.2,1.8-2.2,2.7-3.3c0.8,1.1,1.9,2,2.3,3.2c0.4,1,0.1,2.3,0.1,3.5c0.1,7.1,2.4,13.1,7.5,18.2
		c6.7,6.6,15,9.1,24,10.3c14,1.9,27.4,0.6,39.4-7.3c12.2-7.9,17.1-20.2,19.9-33.9c2.4-11.9-1.6-21.7-9.7-29.6
		c-8.7-8.5-19.5-13.8-30.9-18.1c-3.7-1.4-6.2-0.7-9.1,2.1c-28.6,28.9-57.4,57.6-86.2,86.3C58.1,242,57.1,243.3,56,244.5z"/>
</g>
</svg>
