<?xml version="1.0" encoding="utf-8"?>
<!-- Generator: Adobe Illustrator 20.1.0, SVG Export Plug-In . SVG Version: 6.00 Build 0)  -->
<svg version="1.1" id="Layer_1" xmlns="http://www.w3.org/2000/svg" xmlns:xlink="http://www.w3.org/1999/xlink" x="0px" y="0px"
	 viewBox="0 0 260.2 292.7" style="enable-background:new 0 0 260.2 292.7;" xml:space="preserve">
<style type="text/css">
	.st0{opacity:0.95;clip-path:url(#SVGID_4_);}
	.st1{clip-path:url(#SVGID_6_);fill:#F5F5F5;}
	.st2{fill:#9B9B9B;}
	.st3{fill:#FFFFFF;}
	.st4{clip-path:url(#SVGID_14_);}
	.st5{clip-path:url(#SVGID_18_);}
	.st6{opacity:0.4;clip-path:url(#SVGID_22_);}
	.st7{clip-path:url(#SVGID_24_);}
	.st8{opacity:0.3;clip-path:url(#SVGID_26_);}
	.st9{clip-path:url(#SVGID_28_);fill:none;stroke:#FFFFFF;stroke-miterlimit:10;}
	.st10{fill:#373737;}
	.st11{clip-path:url(#SVGID_32_);fill:#FFFFFF;}
	.st12{clip-path:url(#SVGID_32_);fill:none;stroke:#FF7A00;stroke-miterlimit:10;}
	.st13{clip-path:url(#SVGID_34_);}
	.st14{clip-path:url(#SVGID_38_);}
	.st15{clip-path:url(#SVGID_42_);fill:#F5F5F5;}
	.st16{clip-path:url(#SVGID_50_);fill:#272727;}
	.st17{opacity:0.95;clip-path:url(#SVGID_52_);}
	.st18{clip-path:url(#SVGID_54_);fill:#F5F5F5;}
	.st19{opacity:0;clip-path:url(#SVGID_56_);}
	.st20{opacity:0;clip-path:url(#SVGID_58_);}
	.st21{clip-path:url(#SVGID_60_);fill-rule:evenodd;clip-rule:evenodd;fill:#666666;}
	.st22{clip-path:url(#SVGID_58_);fill:none;stroke:#FFFFFF;stroke-width:2;stroke-miterlimit:10;}
	
		.st23{clip-path:url(#SVGID_58_);fill:none;stroke:#FFFFFF;stroke-width:2;stroke-linecap:round;stroke-linejoin:round;stroke-miterlimit:10;}
	.st24{opacity:0.3;clip-path:url(#SVGID_56_);}
	.st25{clip-path:url(#SVGID_62_);}
	.st26{opacity:0.6;clip-path:url(#SVGID_56_);}
	.st27{clip-path:url(#SVGID_66_);fill-rule:evenodd;clip-rule:evenodd;fill:#666666;}
	.st28{clip-path:url(#SVGID_56_);fill:none;stroke:#FFFFFF;stroke-width:2;stroke-miterlimit:10;}
	
		.st29{clip-path:url(#SVGID_56_);fill:none;stroke:#FFFFFF;stroke-width:2;stroke-linecap:round;stroke-linejoin:round;stroke-miterlimit:10;}
	.st30{clip-path:url(#SVGID_56_);fill:#FFFFFF;}
	.st31{clip-path:url(#SVGID_56_);fill:none;stroke:#D7D7D7;stroke-miterlimit:10;}
	.st32{clip-path:url(#SVGID_68_);fill:#FFFFFF;}
	.st33{clip-path:url(#SVGID_68_);fill:none;stroke:#D7D7D7;stroke-miterlimit:10;}
	.st34{clip-path:url(#SVGID_70_);fill:#FFFFFF;}
	.st35{clip-path:url(#SVGID_70_);fill:none;stroke:#D7D7D7;stroke-miterlimit:10;}
	.st36{clip-path:url(#SVGID_72_);fill:#FFFFFF;}
	.st37{clip-path:url(#SVGID_72_);fill:none;stroke:#D7D7D7;stroke-miterlimit:10;}
	.st38{opacity:0;clip-path:url(#SVGID_74_);}
	.st39{clip-path:url(#SVGID_76_);fill:none;stroke:#D7D7D7;stroke-miterlimit:10;}
	.st40{clip-path:url(#SVGID_74_);fill:#FF7A00;}
	.st41{clip-path:url(#SVGID_78_);fill:#FF7A00;}
	.st42{clip-path:url(#SVGID_80_);fill:#FF7A00;}
	.st43{clip-path:url(#SVGID_82_);fill:#FF7A00;}
	.st44{clip-path:url(#SVGID_84_);}
	.st45{clip-path:url(#SVGID_86_);}
	.st46{opacity:0;clip-path:url(#SVGID_90_);}
	.st47{clip-path:url(#SVGID_94_);}
	.st48{clip-path:url(#SVGID_98_);}
	.st49{clip-path:url(#SVGID_102_);fill:#FF6E00;}
	.st50{clip-path:url(#SVGID_104_);fill:#FFFFFF;}
	.st51{fill:none;}
	path {
		fill:#F16E00;
	}
	</style>
<g>
	<path d="M57.6,54.6c15.6-10,31.6-16.7,49-19.8c1.2-0.2,3-2.4,3-3.7c0.3-8.6,0.1-17.3,0.1-26.6c-2-0.1-3.8-0.3-5.5-0.3
		c-5.7,0-11.3,0.1-17-0.1c-1.5-0.1-2.9-1.4-4.3-2.1c1.3-0.7,2.7-1.9,4-1.9c28.3-0.1,56.7-0.1,85,0c1.3,0,2.6,1.3,3.9,2
		c-1.3,0.7-2.6,2-3.9,2c-7.3,0.2-14.6,0.1-22.4,0.1c0,9.8,0,19.3,0,28.6c10.3,3.3,20.7,6.2,30.8,9.9c12.3,4.5,23.1,11.7,33.3,20.1
		c14.6,12,26,26.3,34,43.3c7.9,16.7,12.2,34.2,12.6,52.9c0.5,22.5-3.9,43.7-14.3,63.5c-15.3,29.3-38.5,49.7-69.3,61.9
		c-19.6,7.7-40,9.6-60.5,7.7c-24.9-2.3-47.4-11.8-67-27.7c-25.4-20.6-41.6-47-47-79c-6.5-38.1,2.4-72.9,26.4-103.5
		c2.2-2.8,2.6-4.9-0.3-7.5c-4.1-3.7-7.8-7.8-11.7-11.6c-2.1-2-2.2-3.8-0.1-5.9c6.4-6.3,12.8-12.7,19.1-19.1c2.4-2.5,4.2-1.6,6.3,0.5
		C47,43.6,52.3,49.1,57.6,54.6z M12,162.4c1.1,66.3,52,118,117.9,118.2c66.3,0.2,118.4-51.8,118.5-117.9
		c0.1-65.8-51.4-118-117.7-118.2C64.3,44.3,13.1,96.5,12,162.4z M144.4,32.9c0-9.9,0-19,0-28.3c-10.2,0-20.1,0-30.2,0
		c0,9.8,0,19.2,0,28.3C124.4,32.9,134.2,32.9,144.4,32.9z M20.4,59.4c0.2,0.3,0.4,0.6,0.6,0.8c2.2,2.3,4.4,4.5,6.7,6.8
		c6.1,6.2,6.1,6.1,12.7,0.9c0.5-0.4,1.2-0.6,1.7-1c3.9-3.2,7.8-6.3,11.8-9.5C48.2,51.8,43,46.7,38.1,41.8
		C32.3,47.6,26.4,53.4,20.4,59.4z"/>
	<path d="M141.1,151.3c19.9-19.9,39.9-39.9,60.1-60.1c2.1,3-0.3,4.7-2.1,6.5c-17.3,17.3-34.6,34.6-51.9,51.9c-2.6,2.6-5,4.4-2.6,9.1
		c2.7,5.4-1.7,13.1-7.6,16.1c-6.1,3.1-14,1.4-18.3-4.2c-3.9-5-3.6-12.5,0.3-17.5C123.6,147.1,131.9,145.6,141.1,151.3z M130.3,172
		c6.4,0,10.4-3.8,10.4-9.8c0-5.7-5.1-11-10.4-10.9c-5,0.1-10.2,5.3-10.3,10.2C119.9,167.8,124,172,130.3,172z"/>
	<path d="M79.2,80.2c-2.1-2.8-4.3-4.5-4.1-5.7c0.3-1.7,2.5-3,3.9-4.5c1.3,1.3,3.6,2.6,3.8,4.1C82.9,75.5,81,77.2,79.2,80.2z"/>
	<path d="M180.6,73.4c1.1,1.7,3.2,3.5,3,5c-0.2,1.4-2.8,2.6-4.3,3.8c-1.2-1.5-3.1-2.8-3.3-4.4c-0.2-1.3,1.6-2.9,2.5-4.4
		C179.2,73.3,179.9,73.3,180.6,73.4z"/>
	<path d="M45.2,206.1c2.3,2.6,4.7,4.4,4.4,5.4c-0.5,1.8-2.6,3.1-4.1,4.7c-1.3-1.6-3.1-3-3.6-4.8C41.7,210.3,43.5,208.7,45.2,206.1z"
		/>
	<path d="M217.8,208c2,2.9,4.2,4.7,3.9,5.9c-0.4,1.7-2.6,2.9-4,4.3c-1.3-1.4-3.5-2.7-3.6-4.2C213.9,212.6,215.9,210.9,217.8,208z"/>
	<path d="M86.9,248.9c-2.7,2-4.6,4.3-5.6,4c-1.8-0.6-3-2.8-4.4-4.3c1.7-1.2,3.2-2.9,5-3.4C82.9,245,84.4,247,86.9,248.9z"/>
	<path d="M180.8,244c2,2.9,4.2,4.7,3.9,5.9c-0.4,1.7-2.6,2.9-4,4.3c-1.3-1.4-3.5-2.7-3.6-4.2C176.9,248.6,178.9,246.9,180.8,244z"/>
	<path d="M124.7,60.4c2.9-2.1,4.8-4.4,5.8-4.1c1.8,0.7,3,2.9,4.5,4.4c-1.5,1.2-2.9,3-4.6,3.2C129.1,64.2,127.5,62.3,124.7,60.4z"/>
	<path d="M48.8,112.5c-2.6,2.2-4.3,4.7-5.3,4.4c-1.8-0.4-3.1-2.6-4.6-4c1.6-1.3,3-3.1,4.8-3.7C44.6,108.9,46.3,110.8,48.8,112.5z"/>
	<path d="M222.9,113.6c-2.7,2-4.5,4.4-5.5,4c-1.8-0.6-3.1-2.7-4.6-4.2c1.5-1.3,2.8-3.5,4.5-3.8C218.5,109.4,220.2,111.6,222.9,113.6
		z"/>
	<path d="M34.5,163.9c-1.5,0.8-3.3,2.4-4.6,2c-1.6-0.4-2.8-2.4-4.1-3.7c1.4-1.4,2.8-3.8,4.3-3.9c1.5-0.1,3.1,2.3,4.6,3.5
		C34.6,162.6,34.6,163.3,34.5,163.9z"/>
	<path d="M135.9,264.6c-2.6,1.8-4.3,3.7-5.3,3.4c-1.8-0.6-3.2-2.4-4.8-3.8c1.5-1.4,2.8-3.6,4.5-3.9
		C131.6,260.1,133.2,262.4,135.9,264.6z"/>
	<path d="M229.6,168.2c-1.9-2.6-3.8-4.2-3.6-5.2c0.5-1.8,2.3-3.3,3.6-4.9c1.4,1.4,3.7,2.7,4,4.3
		C233.8,163.6,231.6,165.4,229.6,168.2z"/>
</g>
</svg>
