<svg id="Layer_1" data-name="Layer 1" xmlns="http://www.w3.org/2000/svg" viewBox="0 0 122.1 38"><defs><style>.cls-1{fill:#fff;}</style></defs><title>white_logo</title><path class="cls-1" d="M121.21,35.86a13.67,13.67,0,1,0,13.48,13.67,13.58,13.58,0,0,0-13.48-13.67m0,19.94a6,6,0,0,1-6-6.28c0-3.35,2.24-6.34,6-6.34a6.07,6.07,0,0,1,6,6.34c0,3.35-2.17,6.28-6,6.28" transform="translate(-42 -25.2)"/><path class="cls-1" d="M69.73,32.69a3.74,3.74,0,1,1,3.74-3.74,3.74,3.74,0,0,1-3.74,3.74" transform="translate(-42 -25.2)"/><path class="cls-1" d="M73.43,61.49a1.7,1.7,0,0,1-1.69,1.71H67.8a1.7,1.7,0,0,1-1.69-1.71v-24a1.7,1.7,0,0,1,1.69-1.71h3.94a1.7,1.7,0,0,1,1.69,1.71v24Z" transform="translate(-42 -25.2)"/><path class="cls-1" d="M137.23,61.49a1.69,1.69,0,0,0,1.68,1.71h3.94a1.71,1.71,0,0,0,1.71-1.71V49.4a6.11,6.11,0,1,1,12.22,0V61.49a1.7,1.7,0,0,0,1.69,1.71h3.94a1.69,1.69,0,0,0,1.68-1.71V49.44a13.43,13.43,0,1,0-26.86,0V61.49Z" transform="translate(-42 -25.2)"/><path class="cls-1" d="M60.93,55.57H53.37c-2.84,0-3.84-1.86-3.84-4.51V30h0V26.91a1.7,1.7,0,0,0-1.69-1.71H42V51.49c0,8.44,5.35,11.71,9.52,11.71H62.71V57.28a1.78,1.78,0,0,0-1.78-1.71" transform="translate(-42 -25.2)"/><path class="cls-1" d="M91.58,35.78h-6.2V26.92h0a1.7,1.7,0,0,0-1.69-1.71H78V61.61a1.64,1.64,0,0,0,1.57,1.59h12a13.71,13.71,0,0,0,0-27.42m0,20.13H85.39V43.06h6.19a6.12,6.12,0,0,1,6,6.42,6.12,6.12,0,0,1-6,6.42" transform="translate(-42 -25.2)"/></svg>